/* XPM */
static char *b2d1de224efa47869e5b8994132f6b63Q4F3Zi9s7jt0hWh6[] = {
    /* columns rows colors chars-per-pixel */
    "32 32 136 2 ",
    "   c None",
    ".  c #020101",
    "X  c #010203",
    "o  c #0C0505",
    "O  c #0D0505",
    "+  c #0D0506",
    "@  c #0E0506",
    "#  c #0E0507",
    "$  c #0F0507",
    "%  c #0C0606",
    "&  c #04070B",
    "*  c #04080A",
    "=  c #04080B",
    "-  c #02080C",
    ";  c #050B0E",
    ":  c #070B0F",
    ">  c #0A090C",
    ",  c #090A0E",
    "<  c #0D090C",
    "1  c #130506",
    "2  c #140506",
    "3  c #170607",
    "4  c #110608",
    "5  c #120608",
    "6  c #120708",
    "7  c #170608",
    "8  c #160709",
    "9  c #150809",
    "0  c #17090B",
    "q  c #160A0A",
    "w  c #190A0B",
    "e  c #1D0A0B",
    "r  c #1E0C0E",
    "t  c #1F0D0E",
    "y  c #040C11",
    "u  c #070D11",
    "i  c #070C12",
    "p  c #070D12",
    "a  c #030E15",
    "s  c #030D16",
    "d  c #030E16",
    "f  c #060F17",
    "g  c #080F15",
    "h  c #0B0E15",
    "j  c #110F17",
    "k  c #190F13",
    "l  c #041018",
    "z  c #06141E",
    "x  c #151117",
    "c  c #171117",
    "v  c #1C1319",
    "b  c #1E141A",
    "n  c #200D0E",
    "m  c #200E0F",
    "M  c #230E10",
    "N  c #211216",
    "B  c #351518",
    "V  c #061621",
    "C  c #081723",
    "Z  c #041D2F",
    "A  c #051E30",
    "S  c #061E30",
    "D  c #041F32",
    "F  c #072032",
    "G  c #79202C",
    "H  c #7D212D",
    "J  c #7C212E",
    "K  c #062E49",
    "L  c #891A24",
    "P  c #98373F",
    "I  c #D72938",
    "U  c #C6323F",
    "Y  c #ED2D3E",
    "T  c #993D44",
    "R  c #9B3E45",
    "E  c #DF3E4C",
    "W  c #B2464F",
    "Q  c #B24750",
    "!  c #B74851",
    "~  c #B74952",
    "^  c #B84A52",
    "/  c #E84653",
    "(  c #F94B59",
    ")  c #FC505E",
    "_  c #D75660",
    "`  c #ED5561",
    "'  c #E55C66",
    "]  c #E65C67",
    "[  c #E75C67",
    "{  c #ED5B66",
    "}  c #E85D68",
    "|  c #E95D68",
    " . c #EE5F6A",
    ".. c #FE5B68",
    "X. c #FE5C69",
    "o. c #F5626E",
    "O. c #F7636E",
    "+. c #FF626E",
    "@. c #FF6470",
    "#. c #FF6672",
    "$. c #095B93",
    "%. c #0A5C95",
    "&. c #0A5E98",
    "*. c #335E81",
    "=. c #3D7097",
    "-. c #0065A8",
    ";. c #0073BE",
    ":. c #0073BF",
    ">. c #0074C0",
    ",. c #0075C1",
    "<. c #4682B0",
    "1. c #1A87D1",
    "2. c #2190DB",
    "3. c #2890D9",
    "4. c #028DE9",
    "5. c #038EE9",
    "6. c #028EEA",
    "7. c #038EEA",
    "8. c #118DE1",
    "9. c #0390ED",
    "0. c #0398FA",
    "q. c #2B9BE8",
    "w. c #1DA1FA",
    "e. c #2AA5FB",
    "r. c #36A7F6",
    "t. c #5196CB",
    "y. c #5AA6E0",
    "u. c #50A8EA",
    "i. c #5EAEEB",
    "p. c #46AFFB",
    "a. c #48B0FC",
    "s. c #56B4FB",
    "d. c #56B5FB",
    "f. c #5FB8FC",
    "g. c #61B3F3",
    "h. c #65BAFC",
    /* pixels */
    "                                      V d                       ",
    "                                      - >.d                     ",
    "                                      * e.,.d                   ",
    "                                      * h.e.,.d                 ",
    "                                      * h.h.e.,.d               ",
    "                                      * h.h.h.e.,.d             ",
    "          & ; ; ; ; ; ; ; ; ; ; ; ; ; * h.h.h.h.e.;.d           ",
    "        u *.=.=.=.=.=.=.=.=.=.=.=.=.=.<.h.h.h.h.h.e.;.d         ",
    "        u y.h.h.h.h.h.h.h.h.h.h.h.h.h.h.h.h.h.h.h.h.e.,.d       ",
    "        u y.h.h.h.h.h.h.h.h.h.h.h.h.h.h.h.h.h.h.h.h.h.e.;.d     ",
    "        u y.h.h.h.h.d.1.2.f.h.h.h.h.h.h.h.h.h.h.h.h.h.h.w.-.z   ",
    "        u y.h.h.h.d.%.c h r.h.h.h.h.h.h.h.h.h.h.h.h.h.p.4.Z     ",
    "        u y.h.h.d.&.v [ c q.h.h.h.h.h.h.h.h.h.h.h.h.a.4.D f     ",
    "        u t.i.u.$.b } #.x 3.i.i.i.i.i.g.h.h.h.h.h.a.0.K l       ",
    "          i ; X N [ #.#.k u y ; ; ; ; h h.h.h.h.a.9.8.          ",
    "              m [ #.#.#.0             * h.h.h.a.5.D             ",
    "            r ] #.#.#.#.q             * h.h.a.5.D h             ",
    "          r ] #.#.#.#.#.M # 1 B   m 5 > h.a.5.D X 5 3 e         ",
    "        r } #.#.#.#.#.#.O. . .o.#.o./ < a.5.D G ` { I 1         ",
    "      r ] #.#.#.#.#.#.#.#.#.#.#.#.#.( > 4.D G ..#.+.Y 1         ",
    "    r } #.#.#.#.#.#.#.#.#.#.#.#.#.#.( x C J ..#.#.+.Y 1         ",
    "  6 T #.#.#.#.#.#.#.#.#.#.#.#.#.#.#.#.E E X.#.#.#.+.Y 1         ",
    "    # ^ #.#.#.#.#.#.#.#.#.#.#.#.#.#.#.#.o.#.#.#.#.+.Y 1         ",
    "      # W #.#.#.#.#.#.#.#.#.#.#.#.#.#.#.o.#.#.#.#.+.Y 1         ",
    "        # } #.#.#.#.#.#.^ T T T T T T T T T T T T P L 8         ",
    "            _ #.#.#.#.#.q # # # # # # # # # # # # 8 8           ",
    "            # ~ #.#.#.#.q                                       ",
    "              # Q #.#.#.q                                       ",
    "                # W #.#.q                                       ",
    "                  # Q #.q                                       ",
    "                    # ~ q                                       ",
    "                      % 5                                       "};
