/* XPM */
static char *a56847603c05465bc7b67168a6b4b4fcdj5qJWCqVbSMbfPQ[] = {
/* columns rows colors chars-per-pixel */
"32 32 118 2 ",
"   c None",
".  c #8DAA22",
"X  c #8EAB23",
"o  c #8FAC23",
"O  c #8FAB26",
"+  c #8FAD24",
"@  c #8FAD25",
"#  c #90AD25",
"$  c #91AF26",
"%  c #91AD2A",
"&  c #93AE2E",
"*  c #93AE2F",
"=  c #90B026",
"-  c #91B026",
";  c #92B026",
":  c #92B127",
">  c #92B228",
",  c #93B228",
"<  c #93B328",
"1  c #93B229",
"2  c #94B329",
"3  c #93B429",
"4  c #95B429",
"5  c #94B42A",
"6  c #95B52B",
"7  c #95B72A",
"8  c #95B42C",
"9  c #98BA2E",
"0  c #99BB2E",
"q  c #99BB2F",
"w  c #95B034",
"e  c #98B237",
"r  c #99B23A",
"t  c #9AB63A",
"y  c #A1C837",
"u  c #A2C838",
"i  c #A3C839",
"p  c #A3C939",
"a  c #A2C93A",
"s  c #A3C93A",
"d  c #A4C939",
"f  c #A5CA3D",
"g  c #9FB747",
"h  c #A3C045",
"j  c #A6C842",
"k  c #A9CC45",
"l  c #A9CD46",
"z  c #A5C04E",
"x  c #ACCE4C",
"c  c #AECF54",
"v  c #B1D158",
"b  c #B5D35F",
"n  c #ADC260",
"m  c #ADC165",
"M  c #B8D566",
"N  c #BBD76C",
"B  c #B1C272",
"V  c #B2C373",
"C  c #B9CA7E",
"Z  c #BCCD7D",
"A  c #BCD573",
"S  c #BDCE80",
"D  c #BCCC84",
"F  c #BDCC86",
"G  c #BFCF89",
"H  c #C2D981",
"J  c #C4DC80",
"K  c #C6DB86",
"L  c #C6DE85",
"P  c #C6DA88",
"I  c #C3CF9A",
"U  c #C4CF9B",
"Y  c #CADD96",
"T  c #CDDE9C",
"R  c #CBE08E",
"E  c #CEE098",
"W  c #CED8AB",
"Q  c #D1DCA5",
"!  c #D1DAAF",
"~  c #D5DFAD",
"^  c #D4DCB7",
"/  c #D5DDBA",
"(  c #D1E0A7",
")  c #D8E5AF",
"_  c #D7E1B2",
"`  c #D8E5B0",
"'  c #DBEAB2",
"]  c #D5DBC1",
"[  c #D6DBC2",
"{  c #D8DDC8",
"}  c #DDE2CB",
"|  c #E6EFCB",
" . c #E0E3D1",
".. c #E1E4D4",
"X. c #EAEFD6",
"o. c #E3E4DF",
"O. c #EAF0D6",
"+. c #EEF2DD",
"@. c #E6E6E5",
"#. c #E6E6E6",
"$. c #E7E7E7",
"%. c #E7E8E3",
"&. c #E7E8E6",
"*. c #E8E8E7",
"=. c #F3F6E8",
"-. c #F4F7EA",
";. c #F5F7EB",
":. c #F6F9EB",
">. c #F7F9EF",
",. c #F7F9F0",
"<. c #F8FAF2",
"1. c #FAFBF4",
"2. c #FAFBF5",
"3. c #FBFCF7",
"4. c #FCFDF8",
"5. c #FEFEFD",
"6. c #FFFFFE",
"7. c white",
/* pixels */
"                        d a y d d a d y                         ",
"                  d d a a d d a a d d d d d d                   ",
"              a d a a d d y d d p p p p d y d d a               ",
"            d a d y d a a d d a p p p p a d a y a d             ",
"          a d a d y d N H a a y p p a T Y a a d p p d           ",
"        a d y d a d d M 1.h v L ( A c *.P 0 d a p p d y         ",
"      a y d d d d a d a | 4.6.6.&.#.#.%.. . w a p p a d a       ",
"    a d d a d a a d a R 6.6.6.6.&.&.#.#.^ . . 0 p p d a d a     ",
"    d a d y d d a d L 6._ Q 6.6.&.#.}  .@.^ . . 0 p d a d y     ",
"  d a d a d d a d a :.6.,.;.6.6.$.#.&.&.@.$.O . X 0 a a a d d   ",
"  d d a d a d a a b 6.6.6.6.6.6.$.#.#.#.@.#.D . X . 0 a a d d   ",
"  d y d a d a f d P ;.;.;.;.;.:.*.&.&.&.#.#.^ . @ . . 0 d a d   ",
"a d d d p p ' 4.K j t r w r r w g g g g g g r V o.I . . 0 a d y ",
"d a y d a l 6.6.O.) 6.6.6.6.6.6.$.#.#.#.#.#. ./ #.#.& . . 0 d d ",
"a d d a d x 6.6.+.~ 6.6.6.6.6.6.$.#.#.#.#.#. .{ #.#.w . . . 0 a ",
"d y a d y x 6.6.+.~ 6.6.6.6.6.6.$.#.#.#.#.#. .{ #.#.w . . . . 0 ",
"d a y d a x 6.6.+.~ 6.6.6.6.6.6.$.#.#.#.#.#. .{ #.#.w . . . . @ ",
"a d d a d x 6.6.+.~ 6.6.6.6.6.6.$.#.#.#.#.#. .{ #.#.w . . . . @ ",
"d y a d a x 6.6.+.~ 6.6.6.6.6.6.$.#.#.#.#.#. .{ #.#.w . . . . $ ",
"d d d a d l 6.6.X.~ 6.6.6.6.6.6.$.#.#.#.#.#. .[ #.#.& . . . . , ",
"  d a d d a ) 4.Z ~ 6.6.6.6.6.6.$.#.#.#.#.#. .V o.U . . . . .   ",
"  a d a a d y 4 . ~ 6.6.6.6.6.6.$.#.#.#.#.#. .. $ . . . . . X   ",
"  d y d y d a u , ~ 6.6.6.6.6.6.$.#.#.#.#.#. .. . . . . . . 4   ",
"    a d d a d a a z n n 6.6.2.n D #.#.$.F F m . . . . . . X     ",
"    a a d a d y y y 2 . 6.6.,.. . #.#.*.. . . . . . . . . 4     ",
"      d a d d d d a y , 6.6.1.. . #.#.#.. . . . . . . . $       ",
"        d d a d a d d y 3.6.=.. . $.#.&.. . . . . . . $         ",
"          y d a d a d d E ,.S . . / *.W . . . . . . .           ",
"            a d d a d y i 2 . . . . . . . . . . . =             ",
"              a a d a d d a 4 . . . . . . . . . 8               ",
"                  d a d a d u = . . . . . @ ,                   ",
"                        d y a u = $ = 3 7                       "
};
