/* XPM */
static char *_c0063f5a730495edda9b329f031e26csxqyDLbgo5zXti0b[] = {
/* columns rows colors chars-per-pixel */
"32 32 2 1 ",
"  c None",
". c black",
/* pixels */
" .............................. ",
".                              .",
".      ..            ......... .",
".   ...  ...                   .",
".  . .    . .                  .",
".  ..      ..                  .",
".  .  ....  .                  .",
". .   .  .   .  .............  .",
". .   .  .   . .             . .",
".  .  ....  .  .    .....    . .",
".  ..      ..  .....     ..... .",
".  . .    . .  .   .......   . .",
".   ...  ...   .             . .",
".      ..      .             . .",
".           .. .    .....    . .",
".        ....  .   ..    .   . .",
".        .     .  .     . .  . .",
".        .  .  . ..    . ... . .",
".       .. .   . .  . .  . . . .",
".      ..  .   . . . .  .  . . .",
".              . . .   .   . . .",
".............. . .. . .   .. . .",
".              .  .  .    .  . .",
". . ...        .   ..   ..   . .",
".              .    .....    . .",
" ............. .             .. ",
"          .    .             .  ",
"         ..... .             .  ",
"         .     ...............  ",
"         ..... .     ...     .  ",
"               .     ...     .  ",
"                .............   "
};
