/* XPM */
static char *_daefd171c60499e9320caab891f50bcuk7q9LWx1hIEZ4pG[] = {
/* columns rows colors chars-per-pixel */
"32 32 140 2 ",
"   c None",
".  c #273FAF",
"X  c #2A3FAF",
"o  c #323FAF",
"O  c #463FAF",
"+  c #503FAF",
"@  c #5E3FAF",
"#  c #403FB0",
"$  c #643FAF",
"%  c #6B3EAF",
"&  c #773FAF",
"*  c #2740AF",
"=  c #2941AF",
"-  c #3340AF",
";  c #3B41AF",
":  c #2740B0",
">  c #2A44B0",
",  c #2E4BB2",
"<  c #3D41B0",
"1  c #304EB3",
"2  c #2F50B2",
"3  c #3354B4",
"4  c #355BB5",
"5  c #385DB6",
"6  c #3964B6",
"7  c #3A6BB7",
"8  c #3D64B8",
"9  c #3C69B8",
"0  c #4240AE",
"q  c #4F40AF",
"w  c #5440AF",
"e  c #4242B0",
"r  c #4C43B1",
"t  c #5643B1",
"y  c #5C44B1",
"u  c #6344B1",
"i  c #6D46B1",
"p  c #7345B2",
"a  c #7B46B1",
"s  c #416EBA",
"d  c #4574BC",
"f  c #4778BC",
"g  c #497CBE",
"h  c #893DAF",
"j  c #923DAE",
"k  c #A53DAE",
"l  c #AD3BAD",
"z  c #B53BAD",
"x  c #BB3CAE",
"c  c #C23BAD",
"v  c #CC3BAE",
"b  c #D737AC",
"n  c #DD36AC",
"m  c #D238AC",
"M  c #FD2AA7",
"N  c #F72FA9",
"B  c #FC2DA8",
"V  c #E435AC",
"C  c #EC34AB",
"Z  c #E43CAE",
"A  c #EF39AD",
"S  c #F434AA",
"D  c #FC33AB",
"F  c #F13CAE",
"G  c #FC3BAD",
"H  c #9141AF",
"J  c #8647B2",
"K  c #8E47B2",
"L  c #9147B3",
"P  c #9248B2",
"I  c #9848B2",
"U  c #A149B2",
"Y  c #A849B3",
"T  c #B241B0",
"R  c #B843B1",
"E  c #B549B3",
"W  c #BC4BB3",
"Q  c #C64BB4",
"!  c #CB4CB4",
"~  c #D944B2",
"^  c #D64CB5",
"/  c #D94DB5",
"(  c #E44CB5",
")  c #EC4CB5",
"_  c #FD43B2",
"`  c #F54EB6",
"'  c #FC4FB6",
"]  c #FD50B6",
"[  c #4584BB",
"{  c #4882BD",
"}  c #498CBD",
"|  c #4B93BE",
" . c #4F9CBF",
".. c #4D83C0",
"X. c #538CC2",
"o. c #5691C4",
"O. c #5999C4",
"+. c #5FA0C7",
"@. c #56ACC2",
"#. c #5CB1C5",
"$. c #5BBCC3",
"%. c #60A3C7",
"&. c #60A3C8",
"*. c #63A8C9",
"=. c #68B0CB",
"-. c #6DB8CD",
";. c #5EC6C5",
":. c #5FC8C5",
">. c #62CDC6",
",. c #68C2CA",
"<. c #6BCECB",
"1. c #71C0CF",
"2. c #61DAC6",
"3. c #6AD1CA",
"4. c #73C3D0",
"5. c #7CD3D3",
"6. c #7FDAD4",
"7. c #5FE0C4",
"8. c #63E1C6",
"9. c #66E2C8",
"0. c #6CE3CB",
"q. c #71E4CD",
"w. c #75E6D0",
"e. c #7CE6D2",
"r. c #80DDD4",
"t. c #81DFD5",
"y. c #82DFD5",
"u. c #80DBD4",
"i. c #81E7D5",
"p. c #83E6D5",
"a. c #82E5D7",
"s. c #82E6D6",
"d. c #84E8D7",
"f. c #85E8D7",
"g. c #86E5D8",
"h. c #86E5D8",
"j. c #87E9D8",
"k. c #88E9D8",
"l. c #88E8D9",
"z. c #89E9D9",
/* pixels */
"                        : * * * s , . .     G             G     ",
"                  ] ) t * * * %.z.%.* : w B G ] ]       M _ '   ",
"              A A E ' W * * %.e.q.*.* * m M E / '     D D ] ' ] ",
"            & M z * ! / *  .q.8.q.*.* * C M . u ] p   B D   ' ' ",
"          * % M l . Q ^ . 7 ;.@.q.*.* * C B . y ' i : M D   ] ] ",
"        , * $ M x . / ^ . * * } q.*.* : V D X p ' i : B D   ' ] ",
"      u.3 * o B G / ' Y * * . } q.%.: : x M ) ` ` e : C D ' ] ' ",
"    >.e.> * * j B _ ! ; * * . 7 0.X.: : o C D ` a * : @ B G '   ",
"    > , * * * * = O . . * * * . 2 * * * * * O o * * * * * #     ",
"  * s o.* * * * * X.f . * . + v T r * * * * 4 O., * * * * 6 *.  ",
"  g h.z.3 * * * &.j.5.. . ; B G ] ` 0 * * 5 r.k.g * * * 8 y.z.  ",
"  p.8.f.3 * * %.e.9.5.. . k M R K ] K . 6 6.9.e.g * * 9 u.9.i.O.",
"0.8.7.p.3 . 7 9.2.8.5.* * z M $ : ' I : ;.8.8.e.g * * >.9.8.e.{ ",
"} [ 2.f.3 : : | 7 8.5.* * z M @ * ' Y * 6 | $.e.g * * 7 | ;.e.g ",
". . 2.h.3 * * * > 8.5.* * l M H y ] I * * * ;.e.g * . . . ;.e.d ",
". . 2.h.3 : * * > 9.5.: * @ M _ ' ' y * . . $.e.g * . . . >.e.d ",
". * @.,.* * * * * >.O.* * * h S ~ p * * * * [ 3.3 * * * * | <.1 ",
"* * . . * * * * * * * * * * * * * * * * * . * * * * * * * * . . ",
"0 n F E ; * * $ C Z I * * * * 5 1.f * * . . g 4.5 * * ; b A E 0 ",
"V B ' ] Q * X N D ] ' L * * 5 r.i.*.* * . g i.i.g * * n B ' ] ^ ",
"  S < W ' = @ M v e ( ! * 7 6.9.0.*.* * { i.8.e.g * * B A < !   ",
"  V : K ' ; % M l * Q ^ *  .7.2.q.*.* * :.2.2.e.g * * B n . U   ",
"  H : P ' ; % M z : Q / * * 5 } q.*.* * = 4 $.e.g * * B n : y   ",
"    i / ' = w M ~ p ` Q * * * } q.*.* * * * ;.q.{ * : B S a     ",
"      ] Y * * C D ' ' p * * * [ 0.%.* * * * $.e.g . * c M _     ",
"      J * * . ; z c u . * * * > $.5 * * * * 6 #., . * * k       ",
"        . * * * : > : * * * * . > . * * * * O o . . * *         ",
"          * * * 5 6.-.* * * * g p.o.* * o V D ` J . *           ",
"            . 5 6.w.5.* * * d i.e.*.. . z M ) ` ] r             ",
"              *.0.9.5.. * [ e.8.q.*.* * n M - u (               ",
"                  0.5.* * [ 2.>.q.*.* * V D :                   ",
"                        * * * } q.=.. *                         "
};
